<?xml version="1.0" encoding="utf-8" standalone="no"?>
<!DOCTYPE svg PUBLIC "-//W3C//DTD SVG 1.1//EN"
  "http://www.w3.org/Graphics/SVG/1.1/DTD/svg11.dtd">
<!-- Created with matplotlib (https://matplotlib.org/) -->
<svg height="432pt" version="1.1" viewBox="0 0 1080 432" width="1080pt" xmlns="http://www.w3.org/2000/svg" xmlns:xlink="http://www.w3.org/1999/xlink">
 <defs>
  <style type="text/css">
*{stroke-linecap:butt;stroke-linejoin:round;white-space:pre;}
  </style>
 </defs>
 <g id="figure_1">
  <g id="patch_1">
   <path d="M 0 432 
L 1080 432 
L 1080 0 
L 0 0 
z
" style="fill:#ffffff;"/>
  </g>
  <g id="axes_1">
   <g id="patch_2">
    <path d="M 135 378 
L 972 378 
L 972 51.84 
L 135 51.84 
z
" style="fill:#ffffff;"/>
   </g>
   <g id="matplotlib.axis_1">
    <g id="xtick_1">
     <g id="line2d_1">
      <path clip-path="url(#p1a106a83b1)" d="M 192.724138 378 
L 192.724138 51.84 
" style="fill:none;stroke:#b0b0b0;stroke-linecap:square;stroke-width:0.8;"/>
     </g>
     <g id="line2d_2">
      <defs>
       <path d="M 0 0 
L 0 3.5 
" id="m8368a33ade" style="stroke:#000000;stroke-width:0.8;"/>
      </defs>
      <g>
       <use style="stroke:#000000;stroke-width:0.8;" x="192.724138" xlink:href="#m8368a33ade" y="378"/>
      </g>
     </g>
     <g id="text_1">
      <!-- 310 -->
      <defs>
       <path d="M 40.578125 39.3125 
Q 47.65625 37.796875 51.625 33 
Q 55.609375 28.21875 55.609375 21.1875 
Q 55.609375 10.40625 48.1875 4.484375 
Q 40.765625 -1.421875 27.09375 -1.421875 
Q 22.515625 -1.421875 17.65625 -0.515625 
Q 12.796875 0.390625 7.625 2.203125 
L 7.625 11.71875 
Q 11.71875 9.328125 16.59375 8.109375 
Q 21.484375 6.890625 26.8125 6.890625 
Q 36.078125 6.890625 40.9375 10.546875 
Q 45.796875 14.203125 45.796875 21.1875 
Q 45.796875 27.640625 41.28125 31.265625 
Q 36.765625 34.90625 28.71875 34.90625 
L 20.21875 34.90625 
L 20.21875 43.015625 
L 29.109375 43.015625 
Q 36.375 43.015625 40.234375 45.921875 
Q 44.09375 48.828125 44.09375 54.296875 
Q 44.09375 59.90625 40.109375 62.90625 
Q 36.140625 65.921875 28.71875 65.921875 
Q 24.65625 65.921875 20.015625 65.03125 
Q 15.375 64.15625 9.8125 62.3125 
L 9.8125 71.09375 
Q 15.4375 72.65625 20.34375 73.4375 
Q 25.25 74.21875 29.59375 74.21875 
Q 40.828125 74.21875 47.359375 69.109375 
Q 53.90625 64.015625 53.90625 55.328125 
Q 53.90625 49.265625 50.4375 45.09375 
Q 46.96875 40.921875 40.578125 39.3125 
z
" id="DejaVuSans-51"/>
       <path d="M 12.40625 8.296875 
L 28.515625 8.296875 
L 28.515625 63.921875 
L 10.984375 60.40625 
L 10.984375 69.390625 
L 28.421875 72.90625 
L 38.28125 72.90625 
L 38.28125 8.296875 
L 54.390625 8.296875 
L 54.390625 0 
L 12.40625 0 
z
" id="DejaVuSans-49"/>
       <path d="M 31.78125 66.40625 
Q 24.171875 66.40625 20.328125 58.90625 
Q 16.5 51.421875 16.5 36.375 
Q 16.5 21.390625 20.328125 13.890625 
Q 24.171875 6.390625 31.78125 6.390625 
Q 39.453125 6.390625 43.28125 13.890625 
Q 47.125 21.390625 47.125 36.375 
Q 47.125 51.421875 43.28125 58.90625 
Q 39.453125 66.40625 31.78125 66.40625 
z
M 31.78125 74.21875 
Q 44.046875 74.21875 50.515625 64.515625 
Q 56.984375 54.828125 56.984375 36.375 
Q 56.984375 17.96875 50.515625 8.265625 
Q 44.046875 -1.421875 31.78125 -1.421875 
Q 19.53125 -1.421875 13.0625 8.265625 
Q 6.59375 17.96875 6.59375 36.375 
Q 6.59375 54.828125 13.0625 64.515625 
Q 19.53125 74.21875 31.78125 74.21875 
z
" id="DejaVuSans-48"/>
      </defs>
      <g transform="translate(183.180388 392.598437)scale(0.1 -0.1)">
       <use xlink:href="#DejaVuSans-51"/>
       <use x="63.623047" xlink:href="#DejaVuSans-49"/>
       <use x="127.246094" xlink:href="#DejaVuSans-48"/>
      </g>
     </g>
    </g>
    <g id="xtick_2">
     <g id="line2d_3">
      <path clip-path="url(#p1a106a83b1)" d="M 337.034483 378 
L 337.034483 51.84 
" style="fill:none;stroke:#b0b0b0;stroke-linecap:square;stroke-width:0.8;"/>
     </g>
     <g id="line2d_4">
      <g>
       <use style="stroke:#000000;stroke-width:0.8;" x="337.034483" xlink:href="#m8368a33ade" y="378"/>
      </g>
     </g>
     <g id="text_2">
      <!-- 320 -->
      <defs>
       <path d="M 19.1875 8.296875 
L 53.609375 8.296875 
L 53.609375 0 
L 7.328125 0 
L 7.328125 8.296875 
Q 12.9375 14.109375 22.625 23.890625 
Q 32.328125 33.6875 34.8125 36.53125 
Q 39.546875 41.84375 41.421875 45.53125 
Q 43.3125 49.21875 43.3125 52.78125 
Q 43.3125 58.59375 39.234375 62.25 
Q 35.15625 65.921875 28.609375 65.921875 
Q 23.96875 65.921875 18.8125 64.3125 
Q 13.671875 62.703125 7.8125 59.421875 
L 7.8125 69.390625 
Q 13.765625 71.78125 18.9375 73 
Q 24.125 74.21875 28.421875 74.21875 
Q 39.75 74.21875 46.484375 68.546875 
Q 53.21875 62.890625 53.21875 53.421875 
Q 53.21875 48.921875 51.53125 44.890625 
Q 49.859375 40.875 45.40625 35.40625 
Q 44.1875 33.984375 37.640625 27.21875 
Q 31.109375 20.453125 19.1875 8.296875 
z
" id="DejaVuSans-50"/>
      </defs>
      <g transform="translate(327.490733 392.598437)scale(0.1 -0.1)">
       <use xlink:href="#DejaVuSans-51"/>
       <use x="63.623047" xlink:href="#DejaVuSans-50"/>
       <use x="127.246094" xlink:href="#DejaVuSans-48"/>
      </g>
     </g>
    </g>
    <g id="xtick_3">
     <g id="line2d_5">
      <path clip-path="url(#p1a106a83b1)" d="M 481.344828 378 
L 481.344828 51.84 
" style="fill:none;stroke:#b0b0b0;stroke-linecap:square;stroke-width:0.8;"/>
     </g>
     <g id="line2d_6">
      <g>
       <use style="stroke:#000000;stroke-width:0.8;" x="481.344828" xlink:href="#m8368a33ade" y="378"/>
      </g>
     </g>
     <g id="text_3">
      <!-- 330 -->
      <g transform="translate(471.801078 392.598437)scale(0.1 -0.1)">
       <use xlink:href="#DejaVuSans-51"/>
       <use x="63.623047" xlink:href="#DejaVuSans-51"/>
       <use x="127.246094" xlink:href="#DejaVuSans-48"/>
      </g>
     </g>
    </g>
    <g id="xtick_4">
     <g id="line2d_7">
      <path clip-path="url(#p1a106a83b1)" d="M 625.655172 378 
L 625.655172 51.84 
" style="fill:none;stroke:#b0b0b0;stroke-linecap:square;stroke-width:0.8;"/>
     </g>
     <g id="line2d_8">
      <g>
       <use style="stroke:#000000;stroke-width:0.8;" x="625.655172" xlink:href="#m8368a33ade" y="378"/>
      </g>
     </g>
     <g id="text_4">
      <!-- 340 -->
      <defs>
       <path d="M 37.796875 64.3125 
L 12.890625 25.390625 
L 37.796875 25.390625 
z
M 35.203125 72.90625 
L 47.609375 72.90625 
L 47.609375 25.390625 
L 58.015625 25.390625 
L 58.015625 17.1875 
L 47.609375 17.1875 
L 47.609375 0 
L 37.796875 0 
L 37.796875 17.1875 
L 4.890625 17.1875 
L 4.890625 26.703125 
z
" id="DejaVuSans-52"/>
      </defs>
      <g transform="translate(616.111422 392.598437)scale(0.1 -0.1)">
       <use xlink:href="#DejaVuSans-51"/>
       <use x="63.623047" xlink:href="#DejaVuSans-52"/>
       <use x="127.246094" xlink:href="#DejaVuSans-48"/>
      </g>
     </g>
    </g>
    <g id="xtick_5">
     <g id="line2d_9">
      <path clip-path="url(#p1a106a83b1)" d="M 769.965517 378 
L 769.965517 51.84 
" style="fill:none;stroke:#b0b0b0;stroke-linecap:square;stroke-width:0.8;"/>
     </g>
     <g id="line2d_10">
      <g>
       <use style="stroke:#000000;stroke-width:0.8;" x="769.965517" xlink:href="#m8368a33ade" y="378"/>
      </g>
     </g>
     <g id="text_5">
      <!-- 350 -->
      <defs>
       <path d="M 10.796875 72.90625 
L 49.515625 72.90625 
L 49.515625 64.59375 
L 19.828125 64.59375 
L 19.828125 46.734375 
Q 21.96875 47.46875 24.109375 47.828125 
Q 26.265625 48.1875 28.421875 48.1875 
Q 40.625 48.1875 47.75 41.5 
Q 54.890625 34.8125 54.890625 23.390625 
Q 54.890625 11.625 47.5625 5.09375 
Q 40.234375 -1.421875 26.90625 -1.421875 
Q 22.3125 -1.421875 17.546875 -0.640625 
Q 12.796875 0.140625 7.71875 1.703125 
L 7.71875 11.625 
Q 12.109375 9.234375 16.796875 8.0625 
Q 21.484375 6.890625 26.703125 6.890625 
Q 35.15625 6.890625 40.078125 11.328125 
Q 45.015625 15.765625 45.015625 23.390625 
Q 45.015625 31 40.078125 35.4375 
Q 35.15625 39.890625 26.703125 39.890625 
Q 22.75 39.890625 18.8125 39.015625 
Q 14.890625 38.140625 10.796875 36.28125 
z
" id="DejaVuSans-53"/>
      </defs>
      <g transform="translate(760.421767 392.598437)scale(0.1 -0.1)">
       <use xlink:href="#DejaVuSans-51"/>
       <use x="63.623047" xlink:href="#DejaVuSans-53"/>
       <use x="127.246094" xlink:href="#DejaVuSans-48"/>
      </g>
     </g>
    </g>
    <g id="xtick_6">
     <g id="line2d_11">
      <path clip-path="url(#p1a106a83b1)" d="M 914.275862 378 
L 914.275862 51.84 
" style="fill:none;stroke:#b0b0b0;stroke-linecap:square;stroke-width:0.8;"/>
     </g>
     <g id="line2d_12">
      <g>
       <use style="stroke:#000000;stroke-width:0.8;" x="914.275862" xlink:href="#m8368a33ade" y="378"/>
      </g>
     </g>
     <g id="text_6">
      <!-- 360 -->
      <defs>
       <path d="M 33.015625 40.375 
Q 26.375 40.375 22.484375 35.828125 
Q 18.609375 31.296875 18.609375 23.390625 
Q 18.609375 15.53125 22.484375 10.953125 
Q 26.375 6.390625 33.015625 6.390625 
Q 39.65625 6.390625 43.53125 10.953125 
Q 47.40625 15.53125 47.40625 23.390625 
Q 47.40625 31.296875 43.53125 35.828125 
Q 39.65625 40.375 33.015625 40.375 
z
M 52.59375 71.296875 
L 52.59375 62.3125 
Q 48.875 64.0625 45.09375 64.984375 
Q 41.3125 65.921875 37.59375 65.921875 
Q 27.828125 65.921875 22.671875 59.328125 
Q 17.53125 52.734375 16.796875 39.40625 
Q 19.671875 43.65625 24.015625 45.921875 
Q 28.375 48.1875 33.59375 48.1875 
Q 44.578125 48.1875 50.953125 41.515625 
Q 57.328125 34.859375 57.328125 23.390625 
Q 57.328125 12.15625 50.6875 5.359375 
Q 44.046875 -1.421875 33.015625 -1.421875 
Q 20.359375 -1.421875 13.671875 8.265625 
Q 6.984375 17.96875 6.984375 36.375 
Q 6.984375 53.65625 15.1875 63.9375 
Q 23.390625 74.21875 37.203125 74.21875 
Q 40.921875 74.21875 44.703125 73.484375 
Q 48.484375 72.75 52.59375 71.296875 
z
" id="DejaVuSans-54"/>
      </defs>
      <g transform="translate(904.732112 392.598437)scale(0.1 -0.1)">
       <use xlink:href="#DejaVuSans-51"/>
       <use x="63.623047" xlink:href="#DejaVuSans-54"/>
       <use x="127.246094" xlink:href="#DejaVuSans-48"/>
      </g>
     </g>
    </g>
    <g id="text_7">
     <!-- Día del año -->
     <defs>
      <path d="M 19.671875 64.796875 
L 19.671875 8.109375 
L 31.59375 8.109375 
Q 46.6875 8.109375 53.6875 14.9375 
Q 60.6875 21.78125 60.6875 36.53125 
Q 60.6875 51.171875 53.6875 57.984375 
Q 46.6875 64.796875 31.59375 64.796875 
z
M 9.8125 72.90625 
L 30.078125 72.90625 
Q 51.265625 72.90625 61.171875 64.09375 
Q 71.09375 55.28125 71.09375 36.53125 
Q 71.09375 17.671875 61.125 8.828125 
Q 51.171875 0 30.078125 0 
L 9.8125 0 
z
" id="DejaVuSans-68"/>
      <path d="M 20.65625 79.984375 
L 30.375 79.984375 
L 14.46875 61.625 
L 6.984375 61.625 
z
M 9.421875 54.6875 
L 18.40625 54.6875 
L 18.40625 0 
L 9.421875 0 
z
M 13.921875 56 
z
" id="DejaVuSans-237"/>
      <path d="M 34.28125 27.484375 
Q 23.390625 27.484375 19.1875 25 
Q 14.984375 22.515625 14.984375 16.5 
Q 14.984375 11.71875 18.140625 8.90625 
Q 21.296875 6.109375 26.703125 6.109375 
Q 34.1875 6.109375 38.703125 11.40625 
Q 43.21875 16.703125 43.21875 25.484375 
L 43.21875 27.484375 
z
M 52.203125 31.203125 
L 52.203125 0 
L 43.21875 0 
L 43.21875 8.296875 
Q 40.140625 3.328125 35.546875 0.953125 
Q 30.953125 -1.421875 24.3125 -1.421875 
Q 15.921875 -1.421875 10.953125 3.296875 
Q 6 8.015625 6 15.921875 
Q 6 25.140625 12.171875 29.828125 
Q 18.359375 34.515625 30.609375 34.515625 
L 43.21875 34.515625 
L 43.21875 35.40625 
Q 43.21875 41.609375 39.140625 45 
Q 35.0625 48.390625 27.6875 48.390625 
Q 23 48.390625 18.546875 47.265625 
Q 14.109375 46.140625 10.015625 43.890625 
L 10.015625 52.203125 
Q 14.9375 54.109375 19.578125 55.046875 
Q 24.21875 56 28.609375 56 
Q 40.484375 56 46.34375 49.84375 
Q 52.203125 43.703125 52.203125 31.203125 
z
" id="DejaVuSans-97"/>
      <path id="DejaVuSans-32"/>
      <path d="M 45.40625 46.390625 
L 45.40625 75.984375 
L 54.390625 75.984375 
L 54.390625 0 
L 45.40625 0 
L 45.40625 8.203125 
Q 42.578125 3.328125 38.25 0.953125 
Q 33.9375 -1.421875 27.875 -1.421875 
Q 17.96875 -1.421875 11.734375 6.484375 
Q 5.515625 14.40625 5.515625 27.296875 
Q 5.515625 40.1875 11.734375 48.09375 
Q 17.96875 56 27.875 56 
Q 33.9375 56 38.25 53.625 
Q 42.578125 51.265625 45.40625 46.390625 
z
M 14.796875 27.296875 
Q 14.796875 17.390625 18.875 11.75 
Q 22.953125 6.109375 30.078125 6.109375 
Q 37.203125 6.109375 41.296875 11.75 
Q 45.40625 17.390625 45.40625 27.296875 
Q 45.40625 37.203125 41.296875 42.84375 
Q 37.203125 48.484375 30.078125 48.484375 
Q 22.953125 48.484375 18.875 42.84375 
Q 14.796875 37.203125 14.796875 27.296875 
z
" id="DejaVuSans-100"/>
      <path d="M 56.203125 29.59375 
L 56.203125 25.203125 
L 14.890625 25.203125 
Q 15.484375 15.921875 20.484375 11.0625 
Q 25.484375 6.203125 34.421875 6.203125 
Q 39.59375 6.203125 44.453125 7.46875 
Q 49.3125 8.734375 54.109375 11.28125 
L 54.109375 2.78125 
Q 49.265625 0.734375 44.1875 -0.34375 
Q 39.109375 -1.421875 33.890625 -1.421875 
Q 20.796875 -1.421875 13.15625 6.1875 
Q 5.515625 13.8125 5.515625 26.8125 
Q 5.515625 40.234375 12.765625 48.109375 
Q 20.015625 56 32.328125 56 
Q 43.359375 56 49.78125 48.890625 
Q 56.203125 41.796875 56.203125 29.59375 
z
M 47.21875 32.234375 
Q 47.125 39.59375 43.09375 43.984375 
Q 39.0625 48.390625 32.421875 48.390625 
Q 24.90625 48.390625 20.390625 44.140625 
Q 15.875 39.890625 15.1875 32.171875 
z
" id="DejaVuSans-101"/>
      <path d="M 9.421875 75.984375 
L 18.40625 75.984375 
L 18.40625 0 
L 9.421875 0 
z
" id="DejaVuSans-108"/>
      <path d="M 54.890625 33.015625 
L 54.890625 0 
L 45.90625 0 
L 45.90625 32.71875 
Q 45.90625 40.484375 42.875 44.328125 
Q 39.84375 48.1875 33.796875 48.1875 
Q 26.515625 48.1875 22.3125 43.546875 
Q 18.109375 38.921875 18.109375 30.90625 
L 18.109375 0 
L 9.078125 0 
L 9.078125 54.6875 
L 18.109375 54.6875 
L 18.109375 46.1875 
Q 21.34375 51.125 25.703125 53.5625 
Q 30.078125 56 35.796875 56 
Q 45.21875 56 50.046875 50.171875 
Q 54.890625 44.34375 54.890625 33.015625 
z
M 32.1875 66.890625 
L 29.390625 69.578125 
Q 28.328125 70.5625 27.515625 71.015625 
Q 26.71875 71.484375 26.078125 71.484375 
Q 24.21875 71.484375 23.34375 69.703125 
Q 22.46875 67.921875 22.359375 63.921875 
L 16.265625 63.921875 
Q 16.359375 70.515625 18.84375 74.09375 
Q 21.34375 77.6875 25.78125 77.6875 
Q 27.640625 77.6875 29.203125 77 
Q 30.765625 76.3125 32.578125 74.703125 
L 35.359375 72.015625 
Q 36.421875 71.046875 37.234375 70.578125 
Q 38.046875 70.125 38.671875 70.125 
Q 40.53125 70.125 41.40625 71.90625 
Q 42.28125 73.6875 42.390625 77.6875 
L 48.484375 77.6875 
Q 48.390625 71.09375 45.890625 67.5 
Q 43.40625 63.921875 38.96875 63.921875 
Q 37.109375 63.921875 35.546875 64.59375 
Q 33.984375 65.28125 32.1875 66.890625 
z
" id="DejaVuSans-241"/>
      <path d="M 30.609375 48.390625 
Q 23.390625 48.390625 19.1875 42.75 
Q 14.984375 37.109375 14.984375 27.296875 
Q 14.984375 17.484375 19.15625 11.84375 
Q 23.34375 6.203125 30.609375 6.203125 
Q 37.796875 6.203125 41.984375 11.859375 
Q 46.1875 17.53125 46.1875 27.296875 
Q 46.1875 37.015625 41.984375 42.703125 
Q 37.796875 48.390625 30.609375 48.390625 
z
M 30.609375 56 
Q 42.328125 56 49.015625 48.375 
Q 55.71875 40.765625 55.71875 27.296875 
Q 55.71875 13.875 49.015625 6.21875 
Q 42.328125 -1.421875 30.609375 -1.421875 
Q 18.84375 -1.421875 12.171875 6.21875 
Q 5.515625 13.875 5.515625 27.296875 
Q 5.515625 40.765625 12.171875 48.375 
Q 18.84375 56 30.609375 56 
z
" id="DejaVuSans-111"/>
     </defs>
     <g transform="translate(525.086719 406.276563)scale(0.1 -0.1)">
      <use xlink:href="#DejaVuSans-68"/>
      <use x="77.001953" xlink:href="#DejaVuSans-237"/>
      <use x="104.785156" xlink:href="#DejaVuSans-97"/>
      <use x="166.064453" xlink:href="#DejaVuSans-32"/>
      <use x="197.851562" xlink:href="#DejaVuSans-100"/>
      <use x="261.328125" xlink:href="#DejaVuSans-101"/>
      <use x="322.851562" xlink:href="#DejaVuSans-108"/>
      <use x="350.634766" xlink:href="#DejaVuSans-32"/>
      <use x="382.421875" xlink:href="#DejaVuSans-97"/>
      <use x="443.701172" xlink:href="#DejaVuSans-241"/>
      <use x="507.080078" xlink:href="#DejaVuSans-111"/>
     </g>
    </g>
   </g>
   <g id="matplotlib.axis_2">
    <g id="ytick_1">
     <g id="line2d_13">
      <path clip-path="url(#p1a106a83b1)" d="M 135 363.182585 
L 972 363.182585 
" style="fill:none;stroke:#b0b0b0;stroke-linecap:square;stroke-width:0.8;"/>
     </g>
     <g id="line2d_14">
      <defs>
       <path d="M 0 0 
L -3.5 0 
" id="m5ecffdd752" style="stroke:#000000;stroke-width:0.8;"/>
      </defs>
      <g>
       <use style="stroke:#000000;stroke-width:0.8;" x="135" xlink:href="#m5ecffdd752" y="363.182585"/>
      </g>
     </g>
     <g id="text_8">
      <!-- 0 -->
      <g transform="translate(121.6375 366.981804)scale(0.1 -0.1)">
       <use xlink:href="#DejaVuSans-48"/>
      </g>
     </g>
    </g>
    <g id="ytick_2">
     <g id="line2d_15">
      <path clip-path="url(#p1a106a83b1)" d="M 135 322.984503 
L 972 322.984503 
" style="fill:none;stroke:#b0b0b0;stroke-linecap:square;stroke-width:0.8;"/>
     </g>
     <g id="line2d_16">
      <g>
       <use style="stroke:#000000;stroke-width:0.8;" x="135" xlink:href="#m5ecffdd752" y="322.984503"/>
      </g>
     </g>
     <g id="text_9">
      <!-- 5000 -->
      <g transform="translate(102.55 326.783722)scale(0.1 -0.1)">
       <use xlink:href="#DejaVuSans-53"/>
       <use x="63.623047" xlink:href="#DejaVuSans-48"/>
       <use x="127.246094" xlink:href="#DejaVuSans-48"/>
       <use x="190.869141" xlink:href="#DejaVuSans-48"/>
      </g>
     </g>
    </g>
    <g id="ytick_3">
     <g id="line2d_17">
      <path clip-path="url(#p1a106a83b1)" d="M 135 282.786421 
L 972 282.786421 
" style="fill:none;stroke:#b0b0b0;stroke-linecap:square;stroke-width:0.8;"/>
     </g>
     <g id="line2d_18">
      <g>
       <use style="stroke:#000000;stroke-width:0.8;" x="135" xlink:href="#m5ecffdd752" y="282.786421"/>
      </g>
     </g>
     <g id="text_10">
      <!-- 10000 -->
      <g transform="translate(96.1875 286.58564)scale(0.1 -0.1)">
       <use xlink:href="#DejaVuSans-49"/>
       <use x="63.623047" xlink:href="#DejaVuSans-48"/>
       <use x="127.246094" xlink:href="#DejaVuSans-48"/>
       <use x="190.869141" xlink:href="#DejaVuSans-48"/>
       <use x="254.492188" xlink:href="#DejaVuSans-48"/>
      </g>
     </g>
    </g>
    <g id="ytick_4">
     <g id="line2d_19">
      <path clip-path="url(#p1a106a83b1)" d="M 135 242.58834 
L 972 242.58834 
" style="fill:none;stroke:#b0b0b0;stroke-linecap:square;stroke-width:0.8;"/>
     </g>
     <g id="line2d_20">
      <g>
       <use style="stroke:#000000;stroke-width:0.8;" x="135" xlink:href="#m5ecffdd752" y="242.58834"/>
      </g>
     </g>
     <g id="text_11">
      <!-- 15000 -->
      <g transform="translate(96.1875 246.387558)scale(0.1 -0.1)">
       <use xlink:href="#DejaVuSans-49"/>
       <use x="63.623047" xlink:href="#DejaVuSans-53"/>
       <use x="127.246094" xlink:href="#DejaVuSans-48"/>
       <use x="190.869141" xlink:href="#DejaVuSans-48"/>
       <use x="254.492188" xlink:href="#DejaVuSans-48"/>
      </g>
     </g>
    </g>
    <g id="ytick_5">
     <g id="line2d_21">
      <path clip-path="url(#p1a106a83b1)" d="M 135 202.390258 
L 972 202.390258 
" style="fill:none;stroke:#b0b0b0;stroke-linecap:square;stroke-width:0.8;"/>
     </g>
     <g id="line2d_22">
      <g>
       <use style="stroke:#000000;stroke-width:0.8;" x="135" xlink:href="#m5ecffdd752" y="202.390258"/>
      </g>
     </g>
     <g id="text_12">
      <!-- 20000 -->
      <g transform="translate(96.1875 206.189477)scale(0.1 -0.1)">
       <use xlink:href="#DejaVuSans-50"/>
       <use x="63.623047" xlink:href="#DejaVuSans-48"/>
       <use x="127.246094" xlink:href="#DejaVuSans-48"/>
       <use x="190.869141" xlink:href="#DejaVuSans-48"/>
       <use x="254.492188" xlink:href="#DejaVuSans-48"/>
      </g>
     </g>
    </g>
    <g id="ytick_6">
     <g id="line2d_23">
      <path clip-path="url(#p1a106a83b1)" d="M 135 162.192176 
L 972 162.192176 
" style="fill:none;stroke:#b0b0b0;stroke-linecap:square;stroke-width:0.8;"/>
     </g>
     <g id="line2d_24">
      <g>
       <use style="stroke:#000000;stroke-width:0.8;" x="135" xlink:href="#m5ecffdd752" y="162.192176"/>
      </g>
     </g>
     <g id="text_13">
      <!-- 25000 -->
      <g transform="translate(96.1875 165.991395)scale(0.1 -0.1)">
       <use xlink:href="#DejaVuSans-50"/>
       <use x="63.623047" xlink:href="#DejaVuSans-53"/>
       <use x="127.246094" xlink:href="#DejaVuSans-48"/>
       <use x="190.869141" xlink:href="#DejaVuSans-48"/>
       <use x="254.492188" xlink:href="#DejaVuSans-48"/>
      </g>
     </g>
    </g>
    <g id="ytick_7">
     <g id="line2d_25">
      <path clip-path="url(#p1a106a83b1)" d="M 135 121.994094 
L 972 121.994094 
" style="fill:none;stroke:#b0b0b0;stroke-linecap:square;stroke-width:0.8;"/>
     </g>
     <g id="line2d_26">
      <g>
       <use style="stroke:#000000;stroke-width:0.8;" x="135" xlink:href="#m5ecffdd752" y="121.994094"/>
      </g>
     </g>
     <g id="text_14">
      <!-- 30000 -->
      <g transform="translate(96.1875 125.793313)scale(0.1 -0.1)">
       <use xlink:href="#DejaVuSans-51"/>
       <use x="63.623047" xlink:href="#DejaVuSans-48"/>
       <use x="127.246094" xlink:href="#DejaVuSans-48"/>
       <use x="190.869141" xlink:href="#DejaVuSans-48"/>
       <use x="254.492188" xlink:href="#DejaVuSans-48"/>
      </g>
     </g>
    </g>
    <g id="ytick_8">
     <g id="line2d_27">
      <path clip-path="url(#p1a106a83b1)" d="M 135 81.796013 
L 972 81.796013 
" style="fill:none;stroke:#b0b0b0;stroke-linecap:square;stroke-width:0.8;"/>
     </g>
     <g id="line2d_28">
      <g>
       <use style="stroke:#000000;stroke-width:0.8;" x="135" xlink:href="#m5ecffdd752" y="81.796013"/>
      </g>
     </g>
     <g id="text_15">
      <!-- 35000 -->
      <g transform="translate(96.1875 85.595231)scale(0.1 -0.1)">
       <use xlink:href="#DejaVuSans-51"/>
       <use x="63.623047" xlink:href="#DejaVuSans-53"/>
       <use x="127.246094" xlink:href="#DejaVuSans-48"/>
       <use x="190.869141" xlink:href="#DejaVuSans-48"/>
       <use x="254.492188" xlink:href="#DejaVuSans-48"/>
      </g>
     </g>
    </g>
   </g>
   <g id="line2d_29">
    <path clip-path="url(#p1a106a83b1)" d="M 135 362.394703 
L 149.431034 361.084245 
L 163.862069 360.288323 
L 178.293103 361.204839 
L 192.724138 359.669273 
L 207.155172 359.114539 
L 221.586207 359.235133 
L 236.017241 358.382934 
L 250.448276 358.246261 
L 264.87931 357.972914 
L 279.310345 359.797907 
L 293.741379 357.611131 
L 308.172414 356.324792 
L 322.603448 355.392197 
L 337.034483 354.813344 
L 351.465517 352.481856 
L 365.896552 353.245619 
L 380.327586 355.030414 
L 394.758621 351.444745 
L 409.189655 350.407635 
L 423.62069 351.5573 
L 438.051724 362.137435 
L 452.482759 350.013693 
L 466.913793 345.616023 
L 481.344828 348.944425 
L 495.775862 339.296885 
L 510.206897 342.183107 
L 524.637931 336.547336 
L 539.068966 336.997555 
L 553.5 331.096476 
L 567.931034 331.377863 
L 582.362069 338.943142 
L 596.793103 323.933178 
L 611.224138 326.224469 
L 625.655172 323.458841 
L 640.086207 320.146519 
L 654.517241 316.311622 
L 668.948276 313.658548 
L 683.37931 330.091524 
L 697.810345 313.851499 
L 712.241379 305.747566 
L 726.672414 302.571917 
L 741.103448 300.031399 
L 755.534483 289.973839 
L 769.965517 285.688723 
L 784.396552 306.205824 
L 798.827586 279.803724 
L 813.258621 269.496936 
L 827.689655 259.375059 
L 842.12069 254.720121 
L 856.551724 242.266755 
L 870.982759 224.073103 
L 885.413793 246.117731 
L 899.844828 237.740451 
L 914.275862 363.174545 
L 928.706897 357.394061 
L 943.137931 359.910461 
L 957.568966 361.333473 
L 972 362.330386 
" style="fill:none;stroke:#1f77b4;stroke-linecap:square;stroke-width:0.75;"/>
    <defs>
     <path d="M 0 1.5 
C 0.397805 1.5 0.77937 1.341951 1.06066 1.06066 
C 1.341951 0.77937 1.5 0.397805 1.5 0 
C 1.5 -0.397805 1.341951 -0.77937 1.06066 -1.06066 
C 0.77937 -1.341951 0.397805 -1.5 0 -1.5 
C -0.397805 -1.5 -0.77937 -1.341951 -1.06066 -1.06066 
C -1.341951 -0.77937 -1.5 -0.397805 -1.5 0 
C -1.5 0.397805 -1.341951 0.77937 -1.06066 1.06066 
C -0.77937 1.341951 -0.397805 1.5 0 1.5 
z
" id="m84b7f71d22" style="stroke:#1f77b4;"/>
    </defs>
    <g clip-path="url(#p1a106a83b1)">
     <use style="fill:#1f77b4;stroke:#1f77b4;" x="135" xlink:href="#m84b7f71d22" y="362.394703"/>
     <use style="fill:#1f77b4;stroke:#1f77b4;" x="149.431034" xlink:href="#m84b7f71d22" y="361.084245"/>
     <use style="fill:#1f77b4;stroke:#1f77b4;" x="163.862069" xlink:href="#m84b7f71d22" y="360.288323"/>
     <use style="fill:#1f77b4;stroke:#1f77b4;" x="178.293103" xlink:href="#m84b7f71d22" y="361.204839"/>
     <use style="fill:#1f77b4;stroke:#1f77b4;" x="192.724138" xlink:href="#m84b7f71d22" y="359.669273"/>
     <use style="fill:#1f77b4;stroke:#1f77b4;" x="207.155172" xlink:href="#m84b7f71d22" y="359.114539"/>
     <use style="fill:#1f77b4;stroke:#1f77b4;" x="221.586207" xlink:href="#m84b7f71d22" y="359.235133"/>
     <use style="fill:#1f77b4;stroke:#1f77b4;" x="236.017241" xlink:href="#m84b7f71d22" y="358.382934"/>
     <use style="fill:#1f77b4;stroke:#1f77b4;" x="250.448276" xlink:href="#m84b7f71d22" y="358.246261"/>
     <use style="fill:#1f77b4;stroke:#1f77b4;" x="264.87931" xlink:href="#m84b7f71d22" y="357.972914"/>
     <use style="fill:#1f77b4;stroke:#1f77b4;" x="279.310345" xlink:href="#m84b7f71d22" y="359.797907"/>
     <use style="fill:#1f77b4;stroke:#1f77b4;" x="293.741379" xlink:href="#m84b7f71d22" y="357.611131"/>
     <use style="fill:#1f77b4;stroke:#1f77b4;" x="308.172414" xlink:href="#m84b7f71d22" y="356.324792"/>
     <use style="fill:#1f77b4;stroke:#1f77b4;" x="322.603448" xlink:href="#m84b7f71d22" y="355.392197"/>
     <use style="fill:#1f77b4;stroke:#1f77b4;" x="337.034483" xlink:href="#m84b7f71d22" y="354.813344"/>
     <use style="fill:#1f77b4;stroke:#1f77b4;" x="351.465517" xlink:href="#m84b7f71d22" y="352.481856"/>
     <use style="fill:#1f77b4;stroke:#1f77b4;" x="365.896552" xlink:href="#m84b7f71d22" y="353.245619"/>
     <use style="fill:#1f77b4;stroke:#1f77b4;" x="380.327586" xlink:href="#m84b7f71d22" y="355.030414"/>
     <use style="fill:#1f77b4;stroke:#1f77b4;" x="394.758621" xlink:href="#m84b7f71d22" y="351.444745"/>
     <use style="fill:#1f77b4;stroke:#1f77b4;" x="409.189655" xlink:href="#m84b7f71d22" y="350.407635"/>
     <use style="fill:#1f77b4;stroke:#1f77b4;" x="423.62069" xlink:href="#m84b7f71d22" y="351.5573"/>
     <use style="fill:#1f77b4;stroke:#1f77b4;" x="438.051724" xlink:href="#m84b7f71d22" y="362.137435"/>
     <use style="fill:#1f77b4;stroke:#1f77b4;" x="452.482759" xlink:href="#m84b7f71d22" y="350.013693"/>
     <use style="fill:#1f77b4;stroke:#1f77b4;" x="466.913793" xlink:href="#m84b7f71d22" y="345.616023"/>
     <use style="fill:#1f77b4;stroke:#1f77b4;" x="481.344828" xlink:href="#m84b7f71d22" y="348.944425"/>
     <use style="fill:#1f77b4;stroke:#1f77b4;" x="495.775862" xlink:href="#m84b7f71d22" y="339.296885"/>
     <use style="fill:#1f77b4;stroke:#1f77b4;" x="510.206897" xlink:href="#m84b7f71d22" y="342.183107"/>
     <use style="fill:#1f77b4;stroke:#1f77b4;" x="524.637931" xlink:href="#m84b7f71d22" y="336.547336"/>
     <use style="fill:#1f77b4;stroke:#1f77b4;" x="539.068966" xlink:href="#m84b7f71d22" y="336.997555"/>
     <use style="fill:#1f77b4;stroke:#1f77b4;" x="553.5" xlink:href="#m84b7f71d22" y="331.096476"/>
     <use style="fill:#1f77b4;stroke:#1f77b4;" x="567.931034" xlink:href="#m84b7f71d22" y="331.377863"/>
     <use style="fill:#1f77b4;stroke:#1f77b4;" x="582.362069" xlink:href="#m84b7f71d22" y="338.943142"/>
     <use style="fill:#1f77b4;stroke:#1f77b4;" x="596.793103" xlink:href="#m84b7f71d22" y="323.933178"/>
     <use style="fill:#1f77b4;stroke:#1f77b4;" x="611.224138" xlink:href="#m84b7f71d22" y="326.224469"/>
     <use style="fill:#1f77b4;stroke:#1f77b4;" x="625.655172" xlink:href="#m84b7f71d22" y="323.458841"/>
     <use style="fill:#1f77b4;stroke:#1f77b4;" x="640.086207" xlink:href="#m84b7f71d22" y="320.146519"/>
     <use style="fill:#1f77b4;stroke:#1f77b4;" x="654.517241" xlink:href="#m84b7f71d22" y="316.311622"/>
     <use style="fill:#1f77b4;stroke:#1f77b4;" x="668.948276" xlink:href="#m84b7f71d22" y="313.658548"/>
     <use style="fill:#1f77b4;stroke:#1f77b4;" x="683.37931" xlink:href="#m84b7f71d22" y="330.091524"/>
     <use style="fill:#1f77b4;stroke:#1f77b4;" x="697.810345" xlink:href="#m84b7f71d22" y="313.851499"/>
     <use style="fill:#1f77b4;stroke:#1f77b4;" x="712.241379" xlink:href="#m84b7f71d22" y="305.747566"/>
     <use style="fill:#1f77b4;stroke:#1f77b4;" x="726.672414" xlink:href="#m84b7f71d22" y="302.571917"/>
     <use style="fill:#1f77b4;stroke:#1f77b4;" x="741.103448" xlink:href="#m84b7f71d22" y="300.031399"/>
     <use style="fill:#1f77b4;stroke:#1f77b4;" x="755.534483" xlink:href="#m84b7f71d22" y="289.973839"/>
     <use style="fill:#1f77b4;stroke:#1f77b4;" x="769.965517" xlink:href="#m84b7f71d22" y="285.688723"/>
     <use style="fill:#1f77b4;stroke:#1f77b4;" x="784.396552" xlink:href="#m84b7f71d22" y="306.205824"/>
     <use style="fill:#1f77b4;stroke:#1f77b4;" x="798.827586" xlink:href="#m84b7f71d22" y="279.803724"/>
     <use style="fill:#1f77b4;stroke:#1f77b4;" x="813.258621" xlink:href="#m84b7f71d22" y="269.496936"/>
     <use style="fill:#1f77b4;stroke:#1f77b4;" x="827.689655" xlink:href="#m84b7f71d22" y="259.375059"/>
     <use style="fill:#1f77b4;stroke:#1f77b4;" x="842.12069" xlink:href="#m84b7f71d22" y="254.720121"/>
     <use style="fill:#1f77b4;stroke:#1f77b4;" x="856.551724" xlink:href="#m84b7f71d22" y="242.266755"/>
     <use style="fill:#1f77b4;stroke:#1f77b4;" x="870.982759" xlink:href="#m84b7f71d22" y="224.073103"/>
     <use style="fill:#1f77b4;stroke:#1f77b4;" x="885.413793" xlink:href="#m84b7f71d22" y="246.117731"/>
     <use style="fill:#1f77b4;stroke:#1f77b4;" x="899.844828" xlink:href="#m84b7f71d22" y="237.740451"/>
     <use style="fill:#1f77b4;stroke:#1f77b4;" x="914.275862" xlink:href="#m84b7f71d22" y="363.174545"/>
     <use style="fill:#1f77b4;stroke:#1f77b4;" x="928.706897" xlink:href="#m84b7f71d22" y="357.394061"/>
     <use style="fill:#1f77b4;stroke:#1f77b4;" x="943.137931" xlink:href="#m84b7f71d22" y="359.910461"/>
     <use style="fill:#1f77b4;stroke:#1f77b4;" x="957.568966" xlink:href="#m84b7f71d22" y="361.333473"/>
     <use style="fill:#1f77b4;stroke:#1f77b4;" x="972" xlink:href="#m84b7f71d22" y="362.330386"/>
    </g>
   </g>
   <g id="line2d_30">
    <path clip-path="url(#p1a106a83b1)" d="M 135 361.60682 
L 149.431034 362.137435 
L 163.862069 360.810898 
L 178.293103 359.894382 
L 192.724138 359.564758 
L 207.155172 359.741629 
L 221.586207 358.350776 
L 236.017241 358.817073 
L 250.448276 360.127531 
L 264.87931 358.350776 
L 279.310345 357.868399 
L 293.741379 357.193071 
L 308.172414 356.228317 
L 322.603448 355.295721 
L 337.034483 355.641425 
L 351.465517 358.214102 
L 365.896552 354.443522 
L 380.327586 353.86467 
L 394.758621 352.634608 
L 409.189655 352.224588 
L 423.62069 351.54926 
L 438.051724 351.026685 
L 452.482759 354.427443 
L 466.913793 348.478127 
L 481.344828 349.579554 
L 495.775862 348.960504 
L 510.206897 361.18876 
L 524.637931 342.649405 
L 539.068966 337.08599 
L 553.5 343.59004 
L 567.931034 325.918963 
L 582.362069 317.011068 
L 596.793103 316.239265 
L 611.224138 314.349955 
L 625.655172 316.689484 
L 640.086207 310.69193 
L 654.517241 330.115643 
L 668.948276 305.723447 
L 683.37931 300.095716 
L 697.810345 285.109871 
L 712.241379 276.097461 
L 726.672414 261.208091 
L 741.103448 276.177857 
L 755.534483 290.946632 
L 769.965517 236.180765 
L 784.396552 233.037275 
L 798.827586 206.361828 
L 813.258621 186.053757 
L 827.689655 177.523725 
L 842.12069 159.892846 
L 856.551724 213.902989 
L 870.982759 86.917248 
L 885.413793 66.665455 
L 914.275862 346.331549 
L 928.706897 351.983399 
L 943.137931 355.74594 
" style="fill:none;stroke:#ff7f0e;stroke-linecap:square;stroke-width:0.75;"/>
    <defs>
     <path d="M 0 1.5 
C 0.397805 1.5 0.77937 1.341951 1.06066 1.06066 
C 1.341951 0.77937 1.5 0.397805 1.5 0 
C 1.5 -0.397805 1.341951 -0.77937 1.06066 -1.06066 
C 0.77937 -1.341951 0.397805 -1.5 0 -1.5 
C -0.397805 -1.5 -0.77937 -1.341951 -1.06066 -1.06066 
C -1.341951 -0.77937 -1.5 -0.397805 -1.5 0 
C -1.5 0.397805 -1.341951 0.77937 -1.06066 1.06066 
C -0.77937 1.341951 -0.397805 1.5 0 1.5 
z
" id="mbfa01ac8dc" style="stroke:#ff7f0e;"/>
    </defs>
    <g clip-path="url(#p1a106a83b1)">
     <use style="fill:#ff7f0e;stroke:#ff7f0e;" x="135" xlink:href="#mbfa01ac8dc" y="361.60682"/>
     <use style="fill:#ff7f0e;stroke:#ff7f0e;" x="149.431034" xlink:href="#mbfa01ac8dc" y="362.137435"/>
     <use style="fill:#ff7f0e;stroke:#ff7f0e;" x="163.862069" xlink:href="#mbfa01ac8dc" y="360.810898"/>
     <use style="fill:#ff7f0e;stroke:#ff7f0e;" x="178.293103" xlink:href="#mbfa01ac8dc" y="359.894382"/>
     <use style="fill:#ff7f0e;stroke:#ff7f0e;" x="192.724138" xlink:href="#mbfa01ac8dc" y="359.564758"/>
     <use style="fill:#ff7f0e;stroke:#ff7f0e;" x="207.155172" xlink:href="#mbfa01ac8dc" y="359.741629"/>
     <use style="fill:#ff7f0e;stroke:#ff7f0e;" x="221.586207" xlink:href="#mbfa01ac8dc" y="358.350776"/>
     <use style="fill:#ff7f0e;stroke:#ff7f0e;" x="236.017241" xlink:href="#mbfa01ac8dc" y="358.817073"/>
     <use style="fill:#ff7f0e;stroke:#ff7f0e;" x="250.448276" xlink:href="#mbfa01ac8dc" y="360.127531"/>
     <use style="fill:#ff7f0e;stroke:#ff7f0e;" x="264.87931" xlink:href="#mbfa01ac8dc" y="358.350776"/>
     <use style="fill:#ff7f0e;stroke:#ff7f0e;" x="279.310345" xlink:href="#mbfa01ac8dc" y="357.868399"/>
     <use style="fill:#ff7f0e;stroke:#ff7f0e;" x="293.741379" xlink:href="#mbfa01ac8dc" y="357.193071"/>
     <use style="fill:#ff7f0e;stroke:#ff7f0e;" x="308.172414" xlink:href="#mbfa01ac8dc" y="356.228317"/>
     <use style="fill:#ff7f0e;stroke:#ff7f0e;" x="322.603448" xlink:href="#mbfa01ac8dc" y="355.295721"/>
     <use style="fill:#ff7f0e;stroke:#ff7f0e;" x="337.034483" xlink:href="#mbfa01ac8dc" y="355.641425"/>
     <use style="fill:#ff7f0e;stroke:#ff7f0e;" x="351.465517" xlink:href="#mbfa01ac8dc" y="358.214102"/>
     <use style="fill:#ff7f0e;stroke:#ff7f0e;" x="365.896552" xlink:href="#mbfa01ac8dc" y="354.443522"/>
     <use style="fill:#ff7f0e;stroke:#ff7f0e;" x="380.327586" xlink:href="#mbfa01ac8dc" y="353.86467"/>
     <use style="fill:#ff7f0e;stroke:#ff7f0e;" x="394.758621" xlink:href="#mbfa01ac8dc" y="352.634608"/>
     <use style="fill:#ff7f0e;stroke:#ff7f0e;" x="409.189655" xlink:href="#mbfa01ac8dc" y="352.224588"/>
     <use style="fill:#ff7f0e;stroke:#ff7f0e;" x="423.62069" xlink:href="#mbfa01ac8dc" y="351.54926"/>
     <use style="fill:#ff7f0e;stroke:#ff7f0e;" x="438.051724" xlink:href="#mbfa01ac8dc" y="351.026685"/>
     <use style="fill:#ff7f0e;stroke:#ff7f0e;" x="452.482759" xlink:href="#mbfa01ac8dc" y="354.427443"/>
     <use style="fill:#ff7f0e;stroke:#ff7f0e;" x="466.913793" xlink:href="#mbfa01ac8dc" y="348.478127"/>
     <use style="fill:#ff7f0e;stroke:#ff7f0e;" x="481.344828" xlink:href="#mbfa01ac8dc" y="349.579554"/>
     <use style="fill:#ff7f0e;stroke:#ff7f0e;" x="495.775862" xlink:href="#mbfa01ac8dc" y="348.960504"/>
     <use style="fill:#ff7f0e;stroke:#ff7f0e;" x="510.206897" xlink:href="#mbfa01ac8dc" y="361.18876"/>
     <use style="fill:#ff7f0e;stroke:#ff7f0e;" x="524.637931" xlink:href="#mbfa01ac8dc" y="342.649405"/>
     <use style="fill:#ff7f0e;stroke:#ff7f0e;" x="539.068966" xlink:href="#mbfa01ac8dc" y="337.08599"/>
     <use style="fill:#ff7f0e;stroke:#ff7f0e;" x="553.5" xlink:href="#mbfa01ac8dc" y="343.59004"/>
     <use style="fill:#ff7f0e;stroke:#ff7f0e;" x="567.931034" xlink:href="#mbfa01ac8dc" y="325.918963"/>
     <use style="fill:#ff7f0e;stroke:#ff7f0e;" x="582.362069" xlink:href="#mbfa01ac8dc" y="317.011068"/>
     <use style="fill:#ff7f0e;stroke:#ff7f0e;" x="596.793103" xlink:href="#mbfa01ac8dc" y="316.239265"/>
     <use style="fill:#ff7f0e;stroke:#ff7f0e;" x="611.224138" xlink:href="#mbfa01ac8dc" y="314.349955"/>
     <use style="fill:#ff7f0e;stroke:#ff7f0e;" x="625.655172" xlink:href="#mbfa01ac8dc" y="316.689484"/>
     <use style="fill:#ff7f0e;stroke:#ff7f0e;" x="640.086207" xlink:href="#mbfa01ac8dc" y="310.69193"/>
     <use style="fill:#ff7f0e;stroke:#ff7f0e;" x="654.517241" xlink:href="#mbfa01ac8dc" y="330.115643"/>
     <use style="fill:#ff7f0e;stroke:#ff7f0e;" x="668.948276" xlink:href="#mbfa01ac8dc" y="305.723447"/>
     <use style="fill:#ff7f0e;stroke:#ff7f0e;" x="683.37931" xlink:href="#mbfa01ac8dc" y="300.095716"/>
     <use style="fill:#ff7f0e;stroke:#ff7f0e;" x="697.810345" xlink:href="#mbfa01ac8dc" y="285.109871"/>
     <use style="fill:#ff7f0e;stroke:#ff7f0e;" x="712.241379" xlink:href="#mbfa01ac8dc" y="276.097461"/>
     <use style="fill:#ff7f0e;stroke:#ff7f0e;" x="726.672414" xlink:href="#mbfa01ac8dc" y="261.208091"/>
     <use style="fill:#ff7f0e;stroke:#ff7f0e;" x="741.103448" xlink:href="#mbfa01ac8dc" y="276.177857"/>
     <use style="fill:#ff7f0e;stroke:#ff7f0e;" x="755.534483" xlink:href="#mbfa01ac8dc" y="290.946632"/>
     <use style="fill:#ff7f0e;stroke:#ff7f0e;" x="769.965517" xlink:href="#mbfa01ac8dc" y="236.180765"/>
     <use style="fill:#ff7f0e;stroke:#ff7f0e;" x="784.396552" xlink:href="#mbfa01ac8dc" y="233.037275"/>
     <use style="fill:#ff7f0e;stroke:#ff7f0e;" x="798.827586" xlink:href="#mbfa01ac8dc" y="206.361828"/>
     <use style="fill:#ff7f0e;stroke:#ff7f0e;" x="813.258621" xlink:href="#mbfa01ac8dc" y="186.053757"/>
     <use style="fill:#ff7f0e;stroke:#ff7f0e;" x="827.689655" xlink:href="#mbfa01ac8dc" y="177.523725"/>
     <use style="fill:#ff7f0e;stroke:#ff7f0e;" x="842.12069" xlink:href="#mbfa01ac8dc" y="159.892846"/>
     <use style="fill:#ff7f0e;stroke:#ff7f0e;" x="856.551724" xlink:href="#mbfa01ac8dc" y="213.902989"/>
     <use style="fill:#ff7f0e;stroke:#ff7f0e;" x="870.982759" xlink:href="#mbfa01ac8dc" y="86.917248"/>
     <use style="fill:#ff7f0e;stroke:#ff7f0e;" x="885.413793" xlink:href="#mbfa01ac8dc" y="66.665455"/>
     <use style="fill:#ff7f0e;stroke:#ff7f0e;" x="914.275862" xlink:href="#mbfa01ac8dc" y="346.331549"/>
     <use style="fill:#ff7f0e;stroke:#ff7f0e;" x="928.706897" xlink:href="#mbfa01ac8dc" y="351.983399"/>
     <use style="fill:#ff7f0e;stroke:#ff7f0e;" x="943.137931" xlink:href="#mbfa01ac8dc" y="355.74594"/>
    </g>
   </g>
   <g id="line2d_31">
    <path clip-path="url(#p1a106a83b1)" d="M 135 362.643931 
L 149.431034 361.83193 
L 163.862069 360.408917 
L 178.293103 359.902422 
L 192.724138 359.878303 
L 207.155172 357.964874 
L 221.586207 357.884478 
L 236.017241 359.604956 
L 250.448276 357.225229 
L 264.87931 357.305626 
L 279.310345 357.024239 
L 293.741379 357.080516 
L 308.172414 355.874574 
L 322.603448 356.622258 
L 337.034483 357.868399 
L 351.465517 356.405188 
L 365.896552 356.035366 
L 380.327586 353.261698 
L 394.758621 351.484943 
L 409.189655 350.825695 
L 423.62069 351.645736 
L 438.051724 354.089779 
L 452.482759 349.949377 
L 466.913793 347.457095 
L 481.344828 350.664902 
L 495.775862 361.236998 
L 510.206897 345.487389 
L 524.637931 340.350075 
L 539.068966 345.455231 
" style="fill:none;stroke:#2ca02c;stroke-linecap:square;stroke-width:0.75;"/>
    <defs>
     <path d="M 0 1.5 
C 0.397805 1.5 0.77937 1.341951 1.06066 1.06066 
C 1.341951 0.77937 1.5 0.397805 1.5 0 
C 1.5 -0.397805 1.341951 -0.77937 1.06066 -1.06066 
C 0.77937 -1.341951 0.397805 -1.5 0 -1.5 
C -0.397805 -1.5 -0.77937 -1.341951 -1.06066 -1.06066 
C -1.341951 -0.77937 -1.5 -0.397805 -1.5 0 
C -1.5 0.397805 -1.341951 0.77937 -1.06066 1.06066 
C -0.77937 1.341951 -0.397805 1.5 0 1.5 
z
" id="mfe546d145f" style="stroke:#2ca02c;"/>
    </defs>
    <g clip-path="url(#p1a106a83b1)">
     <use style="fill:#2ca02c;stroke:#2ca02c;" x="135" xlink:href="#mfe546d145f" y="362.643931"/>
     <use style="fill:#2ca02c;stroke:#2ca02c;" x="149.431034" xlink:href="#mfe546d145f" y="361.83193"/>
     <use style="fill:#2ca02c;stroke:#2ca02c;" x="163.862069" xlink:href="#mfe546d145f" y="360.408917"/>
     <use style="fill:#2ca02c;stroke:#2ca02c;" x="178.293103" xlink:href="#mfe546d145f" y="359.902422"/>
     <use style="fill:#2ca02c;stroke:#2ca02c;" x="192.724138" xlink:href="#mfe546d145f" y="359.878303"/>
     <use style="fill:#2ca02c;stroke:#2ca02c;" x="207.155172" xlink:href="#mfe546d145f" y="357.964874"/>
     <use style="fill:#2ca02c;stroke:#2ca02c;" x="221.586207" xlink:href="#mfe546d145f" y="357.884478"/>
     <use style="fill:#2ca02c;stroke:#2ca02c;" x="236.017241" xlink:href="#mfe546d145f" y="359.604956"/>
     <use style="fill:#2ca02c;stroke:#2ca02c;" x="250.448276" xlink:href="#mfe546d145f" y="357.225229"/>
     <use style="fill:#2ca02c;stroke:#2ca02c;" x="264.87931" xlink:href="#mfe546d145f" y="357.305626"/>
     <use style="fill:#2ca02c;stroke:#2ca02c;" x="279.310345" xlink:href="#mfe546d145f" y="357.024239"/>
     <use style="fill:#2ca02c;stroke:#2ca02c;" x="293.741379" xlink:href="#mfe546d145f" y="357.080516"/>
     <use style="fill:#2ca02c;stroke:#2ca02c;" x="308.172414" xlink:href="#mfe546d145f" y="355.874574"/>
     <use style="fill:#2ca02c;stroke:#2ca02c;" x="322.603448" xlink:href="#mfe546d145f" y="356.622258"/>
     <use style="fill:#2ca02c;stroke:#2ca02c;" x="337.034483" xlink:href="#mfe546d145f" y="357.868399"/>
     <use style="fill:#2ca02c;stroke:#2ca02c;" x="351.465517" xlink:href="#mfe546d145f" y="356.405188"/>
     <use style="fill:#2ca02c;stroke:#2ca02c;" x="365.896552" xlink:href="#mfe546d145f" y="356.035366"/>
     <use style="fill:#2ca02c;stroke:#2ca02c;" x="380.327586" xlink:href="#mfe546d145f" y="353.261698"/>
     <use style="fill:#2ca02c;stroke:#2ca02c;" x="394.758621" xlink:href="#mfe546d145f" y="351.484943"/>
     <use style="fill:#2ca02c;stroke:#2ca02c;" x="409.189655" xlink:href="#mfe546d145f" y="350.825695"/>
     <use style="fill:#2ca02c;stroke:#2ca02c;" x="423.62069" xlink:href="#mfe546d145f" y="351.645736"/>
     <use style="fill:#2ca02c;stroke:#2ca02c;" x="438.051724" xlink:href="#mfe546d145f" y="354.089779"/>
     <use style="fill:#2ca02c;stroke:#2ca02c;" x="452.482759" xlink:href="#mfe546d145f" y="349.949377"/>
     <use style="fill:#2ca02c;stroke:#2ca02c;" x="466.913793" xlink:href="#mfe546d145f" y="347.457095"/>
     <use style="fill:#2ca02c;stroke:#2ca02c;" x="481.344828" xlink:href="#mfe546d145f" y="350.664902"/>
     <use style="fill:#2ca02c;stroke:#2ca02c;" x="495.775862" xlink:href="#mfe546d145f" y="361.236998"/>
     <use style="fill:#2ca02c;stroke:#2ca02c;" x="510.206897" xlink:href="#mfe546d145f" y="345.487389"/>
     <use style="fill:#2ca02c;stroke:#2ca02c;" x="524.637931" xlink:href="#mfe546d145f" y="340.350075"/>
     <use style="fill:#2ca02c;stroke:#2ca02c;" x="539.068966" xlink:href="#mfe546d145f" y="345.455231"/>
    </g>
   </g>
   <g id="patch_3">
    <path d="M 135 378 
L 135 51.84 
" style="fill:none;stroke:#000000;stroke-linecap:square;stroke-linejoin:miter;stroke-width:0.8;"/>
   </g>
   <g id="patch_4">
    <path d="M 972 378 
L 972 51.84 
" style="fill:none;stroke:#000000;stroke-linecap:square;stroke-linejoin:miter;stroke-width:0.8;"/>
   </g>
   <g id="patch_5">
    <path d="M 135 378 
L 972 378 
" style="fill:none;stroke:#000000;stroke-linecap:square;stroke-linejoin:miter;stroke-width:0.8;"/>
   </g>
   <g id="patch_6">
    <path d="M 135 51.84 
L 972 51.84 
" style="fill:none;stroke:#000000;stroke-linecap:square;stroke-linejoin:miter;stroke-width:0.8;"/>
   </g>
   <g id="legend_1">
    <g id="patch_7">
     <path d="M 907.55 103.874375 
L 965 103.874375 
Q 967 103.874375 967 101.874375 
L 967 58.84 
Q 967 56.84 965 56.84 
L 907.55 56.84 
Q 905.55 56.84 905.55 58.84 
L 905.55 101.874375 
Q 905.55 103.874375 907.55 103.874375 
z
" style="fill:#ffffff;opacity:0.8;stroke:#cccccc;stroke-linejoin:miter;"/>
    </g>
    <g id="line2d_32">
     <path d="M 909.55 64.938437 
L 929.55 64.938437 
" style="fill:none;stroke:#1f77b4;stroke-linecap:square;stroke-width:0.75;"/>
    </g>
    <g id="line2d_33">
     <g>
      <use style="fill:#1f77b4;stroke:#1f77b4;" x="919.55" xlink:href="#m84b7f71d22" y="64.938437"/>
     </g>
    </g>
    <g id="text_16">
     <!-- 2012 -->
     <g transform="translate(937.55 68.438437)scale(0.1 -0.1)">
      <use xlink:href="#DejaVuSans-50"/>
      <use x="63.623047" xlink:href="#DejaVuSans-48"/>
      <use x="127.246094" xlink:href="#DejaVuSans-49"/>
      <use x="190.869141" xlink:href="#DejaVuSans-50"/>
     </g>
    </g>
    <g id="line2d_34">
     <path d="M 909.55 79.616562 
L 929.55 79.616562 
" style="fill:none;stroke:#ff7f0e;stroke-linecap:square;stroke-width:0.75;"/>
    </g>
    <g id="line2d_35">
     <g>
      <use style="fill:#ff7f0e;stroke:#ff7f0e;" x="919.55" xlink:href="#mbfa01ac8dc" y="79.616562"/>
     </g>
    </g>
    <g id="text_17">
     <!-- 2013 -->
     <g transform="translate(937.55 83.116562)scale(0.1 -0.1)">
      <use xlink:href="#DejaVuSans-50"/>
      <use x="63.623047" xlink:href="#DejaVuSans-48"/>
      <use x="127.246094" xlink:href="#DejaVuSans-49"/>
      <use x="190.869141" xlink:href="#DejaVuSans-51"/>
     </g>
    </g>
    <g id="line2d_36">
     <path d="M 909.55 94.294687 
L 929.55 94.294687 
" style="fill:none;stroke:#2ca02c;stroke-linecap:square;stroke-width:0.75;"/>
    </g>
    <g id="line2d_37">
     <g>
      <use style="fill:#2ca02c;stroke:#2ca02c;" x="919.55" xlink:href="#mfe546d145f" y="94.294687"/>
     </g>
    </g>
    <g id="text_18">
     <!-- 2014 -->
     <g transform="translate(937.55 97.794687)scale(0.1 -0.1)">
      <use xlink:href="#DejaVuSans-50"/>
      <use x="63.623047" xlink:href="#DejaVuSans-48"/>
      <use x="127.246094" xlink:href="#DejaVuSans-49"/>
      <use x="190.869141" xlink:href="#DejaVuSans-52"/>
     </g>
    </g>
   </g>
  </g>
 </g>
 <defs>
  <clipPath id="p1a106a83b1">
   <rect height="326.16" width="837" x="135" y="51.84"/>
  </clipPath>
 </defs>
</svg>
